<?xml version="1.0" encoding="UTF-8" standalone="no"?>
<!-- Created with Inkscape (http://www.inkscape.org/) -->
<svg
   xmlns:svg="http://www.w3.org/2000/svg"
   xmlns="http://www.w3.org/2000/svg"
   version="1.0"
   width="970"
   height="347"
   id="svg2403"
   xml:space="preserve"><defs
     id="defs2406"><clipPath
       id="clipPath2424"><path
         d="M 0,0 L 426,0 L 426,148 L 0,148 L 0,0 z"
         id="path2426" /></clipPath><clipPath
       id="clipPath2446"><path
         d="M 0,0 L 425.197,0 L 425.197,147.015 L 0,147.015 L 0,0 z"
         id="path2448" /></clipPath></defs><g
     transform="matrix(1.25,0,0,-1.25,0,185)"
     id="g2412"><g
       id="g2414" /><g
       id="g2416" /><g
       transform="matrix(1.7874068,0,0,1.7874068,8,-122.63782)"
       id="g2418"><g
         id="g2420"><g
           clip-path="url(#clipPath2424)"
           id="g2422"><g
             id="g2428" /><g
             id="g2430"><path
               d="M 28.42,40.058 L 28.397,39.995 L 29.223,39.726 L 29.339,40.057 L 28.42,40.058"
               id="path2432"
               style="fill:#ed1c24;fill-opacity:1;fill-rule:evenodd;stroke:none" /><path
               d="M 53.519,40.057 C 53.593,40.057 95.34801,40.057 95.34801,40.057 C 95.34801,40.127 95.35,108.235 95.35,108.235 C 88.872,107.856 73.51701,110.301 63.593,121.728 C 63.382,119.982 53.514,40.06 53.519,40.057"
               id="path2434"
               style="fill:#ed1c24;fill-opacity:1;fill-rule:evenodd;stroke:none" /><path
               d="M 29.339,40.057 C 29.451,40.057 52.648,40.046 52.648,40.057 C 52.731,40.985 62.939,123.89 62.939,123.89 C 63.63,123.084 71.46301,112.257 87.896,109.569 C 77.33701,113.331 65.819,123.775 61.518,135.678 C 61.096,134.333 29.339,40.057 29.339,40.057"
               id="path2436"
               style="fill:#ed1c24;fill-opacity:1;fill-rule:evenodd;stroke:none" /><path
               d="M 28.42,40.058 C 27.945,40.057 0,40.062 0,40.062 C 0.174,40.345 65.165,147.015 65.165,147.015 C 65.098,131.658 74.593,122.307 75.341,121.241 C 76.218,120.491 81.1,114.253 92.86501,109.227 C 89.93101,109.8 82.367,110.853 72.069,121.255 C 68.818,124.401 63.532,130.829 61.522,138.475 C 60.805,136.429 28.42,40.058 28.42,40.058"
               id="path2438"
               style="fill:#ed1c24;fill-opacity:1;fill-rule:evenodd;stroke:none" /><path
               d="M 52.65,40.057 L 53.518,40.056 L 53.475,39.657 L 52.606,39.696 L 52.65,40.057"
               id="path2440"
               style="fill:#ed1c24;fill-opacity:1;fill-rule:evenodd;stroke:none" /></g><g
             id="g2442"><g
               clip-path="url(#clipPath2446)"
               id="g2444"><path
                 d="M 94.94601,107.932 L 112.69,42.21 L 21.653,18.704 L 28.828,39.911 M 94.96301,108.021 L 126.871,47.161 L 48.241,0.8240001 L 53.047,39.729"
                 id="path2450"
                 style="fill:none;stroke:#ed1c24;stroke-width:0.48673868;stroke-linecap:butt;stroke-linejoin:miter;stroke-miterlimit:3.86400008;stroke-dasharray:none;stroke-opacity:1" /></g></g><g
             id="g2452"><path
               d="M 157.688,107.03 L 144.24,107.03 L 144.24,104.72 L 149.439,104.72 L 149.439,87.136 L 152.198,87.136 L 152.198,104.72 L 157.397,104.72 L 157.688,107.03"
               id="path2454"
               style="fill:#231f20;fill-opacity:1;fill-rule:evenodd;stroke:none" /><path
               d="M 166.629,95.769 L 160.588,95.769 C 160.588,97.09701 160.842,98.13801 161.351,98.89201 C 161.859,99.645 162.621,100.029 163.638,100.043 C 164.103,100.036 164.509,99.93999 164.857,99.75401 C 165.207,99.567 165.497,99.327 165.729,99.03201 C 166.021,98.66701 166.243,98.206 166.397,97.65 C 166.551,97.093 166.628,96.467 166.629,95.769 z M 169.418,93.80601 L 169.418,94.26801 C 169.411,95.899 169.272,97.191 169,98.144 C 168.729,99.09701 168.277,99.884 167.646,100.504 C 166.634,101.544 165.318,102.063 163.696,102.063 C 162.798,102.065 161.987,101.903 161.264,101.577 C 160.54,101.25 159.889,100.748 159.31,100.071 C 158.691,99.35101 158.245,98.547 157.971,97.661 C 157.696,96.774 157.563,95.71 157.567,94.47 C 157.586,92.079 158.166,90.21201 159.307,88.869 C 160.447,87.525 162.036,86.841 164.073,86.818 C 165.02,86.818 165.916,86.97 166.76,87.277 C 167.605,87.58301 168.384,88.04601 169.098,88.66601 L 168.082,90.25401 C 167.561,89.79201 167.005,89.44601 166.415,89.215 C 165.825,88.984 165.19,88.869 164.509,88.869 C 163.807,88.867 163.17,89.007 162.6,89.287 C 162.028,89.567 161.551,89.996 161.169,90.57201 C 160.953,90.91801 160.797,91.32999 160.701,91.81 C 160.604,92.289 160.557,92.839 160.559,93.45901 L 160.559,93.80601 L 169.418,93.80601"
               id="path2456"
               style="fill:#231f20;fill-opacity:1;fill-rule:evenodd;stroke:none" /><path
               d="M 183.038,88.72401 L 181.731,90.37 C 181.291,89.87801 180.813,89.505 180.297,89.25101 C 179.781,88.997 179.252,88.87 178.71,88.869 C 178.287,88.87 177.899,88.94601 177.545,89.096 C 177.191,89.246 176.882,89.45801 176.619,89.735 C 176.241,90.135 175.952,90.677 175.755,91.359 C 175.558,92.04101 175.458,92.886 175.458,93.89201 C 175.456,94.887 175.51,95.74901 175.621,96.48 C 175.732,97.21101 175.91,97.82101 176.155,98.31 C 176.408,98.80501 176.758,99.187 177.204,99.45801 C 177.649,99.728 178.152,99.866 178.71,99.87 C 179.164,99.87501 179.586,99.79201 179.978,99.62 C 180.369,99.44901 180.799,99.15601 181.267,98.743 L 182.661,100.562 C 182.111,101.068 181.511,101.45 180.86,101.706 C 180.209,101.963 179.492,102.092 178.71,102.093 C 177.998,102.091 177.325,101.964 176.692,101.713 C 176.059,101.463 175.473,101.098 174.935,100.62 C 174.223,100.015 173.643,99.204 173.192,98.187 C 172.742,97.17101 172.509,95.854 172.495,94.23901 C 172.493,93.146 172.605,92.17 172.833,91.312 C 173.06,90.454 173.412,89.687 173.889,89.013 C 174.911,87.56901 176.469,86.84801 178.565,86.84801 C 179.478,86.841 180.281,86.984 180.976,87.277 C 181.67,87.57 182.358,88.052 183.038,88.72401"
               id="path2458"
               style="fill:#231f20;fill-opacity:1;fill-rule:evenodd;stroke:none" /><path
               d="M 197.325,87.136 L 197.325,97.44401 C 197.328,98.06801 197.309,98.538 197.267,98.85101 C 197.226,99.165 197.148,99.47601 197.035,99.783 C 196.799,100.442 196.349,100.964 195.684,101.353 C 195.02,101.741 194.25,101.939 193.375,101.948 C 192.84,101.951 192.313,101.873 191.792,101.717 C 191.271,101.561 190.744,101.31 190.209,100.967 C 189.931,100.789 189.682,100.617 189.462,100.451 C 189.241,100.284 188.978,100.061 188.67,99.783 C 188.699,100.16 188.721,100.511 188.735,100.836 C 188.75,101.163 188.757,101.456 188.757,101.717 L 188.757,104.951 C 188.756,105.655 188.729,106.282 188.673,106.831 C 188.619,107.381 188.54,107.87 188.438,108.3 L 185.736,107.752 C 185.838,107.337 185.917,106.882 185.973,106.388 C 186.027,105.893 186.055,105.337 186.056,104.72 L 186.056,87.136 L 188.757,87.136 L 188.757,97.53 C 189.335,98.187 189.965,98.701 190.645,99.07201 C 191.325,99.44301 191.983,99.631 192.621,99.63801 C 192.975,99.634 193.296,99.578 193.582,99.47201 C 193.868,99.367 194.08,99.23901 194.217,99.089 C 194.365,98.93 194.483,98.68 194.573,98.339 C 194.663,97.998 194.708,97.575 194.711,97.06901 L 194.711,87.136 L 197.325,87.136"
               id="path2460"
               style="fill:#231f20;fill-opacity:1;fill-rule:evenodd;stroke:none" /><path
               d="M 213.25,87.136 L 213.25,98.079 C 213.25,98.413 213.221,98.734 213.163,99.04301 C 213.104,99.35101 213.017,99.637 212.901,99.898 C 212.626,100.527 212.182,101.023 211.569,101.389 C 210.956,101.754 210.257,101.94 209.474,101.948 C 209.021,101.949 208.563,101.89 208.102,101.771 C 207.641,101.653 207.197,101.471 206.773,101.226 C 206.48,101.059 206.194,100.867 205.916,100.649 C 205.638,100.431 205.294,100.152 204.885,99.811 C 204.886,100.252 204.847,100.648 204.769,100.999 C 204.69,101.35 204.564,101.695 204.391,102.035 L 201.864,101.342 C 202.065,100.852 202.208,100.367 202.293,99.884 C 202.377,99.401 202.418,98.742 202.416,97.90601 L 202.416,87.136 L 205.059,87.136 L 205.059,97.84801 C 205.576,98.38 206.169,98.81801 206.838,99.162 C 207.507,99.506 208.115,99.68401 208.661,99.69601 C 208.996,99.69501 209.291,99.646 209.542,99.548 C 209.795,99.45 209.995,99.30701 210.142,99.118 C 210.313,98.90501 210.435,98.63901 210.505,98.32101 C 210.575,98.00301 210.609,97.52801 210.606,96.895 L 210.606,87.136 L 213.25,87.136"
               id="path2462"
               style="fill:#231f20;fill-opacity:1;fill-rule:evenodd;stroke:none" /><path
               d="M 221.632,106.048 C 221.617,106.609 221.428,107.069 221.064,107.427 C 220.702,107.786 220.252,107.971 219.715,107.983 C 219.178,107.969 218.732,107.78 218.378,107.416 C 218.023,107.052 217.84,106.596 217.826,106.048 C 217.838,105.514 218.018,105.066 218.364,104.705 C 218.71,104.345 219.15,104.157 219.686,104.143 C 220.236,104.157 220.695,104.345 221.062,104.705 C 221.427,105.066 221.617,105.514 221.632,106.048 z M 221.079,87.136 L 221.079,101.948 L 218.32,101.515 L 218.32,87.136 L 221.079,87.136"
               id="path2464"
               style="fill:#231f20;fill-opacity:1;fill-rule:evenodd;stroke:none" /><path
               d="M 238.436,87.136 L 231.959,95.48 L 237.157,101.63 L 233.904,101.63 L 229.112,95.36501 L 235.096,87.136 L 238.436,87.136 z M 228.822,87.136 L 228.822,105.153 C 228.818,105.755 228.782,106.335 228.713,106.893 C 228.644,107.452 228.563,107.93 228.474,108.33 L 225.771,107.694 C 225.89,107.283 225.981,106.813 226.048,106.287 C 226.114,105.76 226.148,105.131 226.149,104.403 L 226.149,87.136 L 228.822,87.136"
               id="path2466"
               style="fill:#231f20;fill-opacity:1;fill-rule:evenodd;stroke:none" /><path
               d="M 258.713,88.089 C 258.422,88.33601 258.198,88.715 258.045,89.22301 C 257.892,89.729 257.813,90.353 257.813,91.092 L 257.813,101.977 L 255.17,101.457 L 255.17,91.062 C 254.847,90.412 254.381,89.873 253.775,89.44601 C 253.169,89.019 252.53,88.798 251.858,88.78201 C 251.532,88.786 251.219,88.85 250.918,88.969 C 250.617,89.09 250.369,89.23901 250.174,89.41701 C 249.917,89.645 249.74,89.94601 249.644,90.31901 C 249.547,90.692 249.501,91.23801 249.506,91.95801 L 249.506,102.035 L 246.862,101.515 L 246.862,91.23601 C 246.861,90.716 246.887,90.25401 246.939,89.85 C 246.991,89.44601 247.082,89.1 247.211,88.81 C 247.525,88.14 248.022,87.61201 248.703,87.23 C 249.384,86.84801 250.193,86.652 251.133,86.645 C 252.03,86.64301 252.841,86.813 253.564,87.15401 C 254.288,87.495 254.939,88.01801 255.518,88.72401 C 255.644,88.242 255.813,87.842 256.026,87.522 C 256.239,87.203 256.524,86.911 256.883,86.645 L 258.713,88.089"
               id="path2468"
               style="fill:#231f20;fill-opacity:1;fill-rule:evenodd;stroke:none" /><path
               d="M 273.514,87.136 L 273.514,98.079 C 273.514,98.413 273.484,98.734 273.427,99.04301 C 273.368,99.35101 273.281,99.637 273.165,99.898 C 272.89,100.527 272.445,101.023 271.833,101.389 C 271.22,101.754 270.521,101.94 269.737,101.948 C 269.284,101.949 268.826,101.89 268.365,101.771 C 267.904,101.653 267.462,101.471 267.036,101.226 C 266.743,101.059 266.458,100.867 266.18,100.649 C 265.901,100.431 265.558,100.152 265.148,99.811 C 265.15,100.252 265.11,100.648 265.032,100.999 C 264.954,101.35 264.828,101.695 264.655,102.035 L 262.128,101.342 C 262.329,100.852 262.472,100.367 262.557,99.884 C 262.641,99.401 262.683,98.742 262.68,97.90601 L 262.68,87.136 L 265.323,87.136 L 265.323,97.84801 C 265.84,98.38 266.433,98.81801 267.102,99.162 C 267.771,99.506 268.378,99.68401 268.925,99.69601 C 269.26,99.69501 269.555,99.646 269.807,99.548 C 270.06,99.45 270.259,99.30701 270.406,99.118 C 270.577,98.90501 270.699,98.63901 270.769,98.32101 C 270.839,98.00301 270.873,97.52801 270.87,96.895 L 270.87,87.136 L 273.514,87.136"
               id="path2470"
               style="fill:#231f20;fill-opacity:1;fill-rule:evenodd;stroke:none" /><path
               d="M 287.065,90.803 C 286.817,90.354 286.435,89.967 285.918,89.64101 C 285.401,89.315 284.758,89.144 283.986,89.12801 C 283.496,89.12701 283.075,89.187 282.727,89.30901 C 282.378,89.43101 282.081,89.62 281.837,89.87901 C 281.446,90.241 281.16,90.72301 280.977,91.327 C 280.793,91.93 280.702,92.91 280.704,94.26801 C 280.701,95.19501 280.758,95.97501 280.875,96.606 C 280.991,97.23801 281.187,97.786 281.46,98.25201 C 281.736,98.718 282.089,99.079 282.516,99.33501 C 282.942,99.592 283.433,99.72101 283.986,99.72501 C 284.664,99.72501 285.254,99.61 285.754,99.382 C 286.255,99.15401 286.691,98.816 287.065,98.368 L 287.065,90.803 z M 290.173,87.136 C 290.016,87.58301 289.908,88.21101 289.85,89.02 C 289.791,89.829 289.763,90.817 289.766,91.98701 L 289.766,107.925 L 287.094,108.358 L 287.094,102.728 C 287.097,102.218 287.105,101.722 287.123,101.241 C 287.14,100.76 287.149,100.409 287.152,100.187 C 286.659,100.775 286.119,101.202 285.533,101.468 C 284.946,101.735 284.305,101.866 283.608,101.862 C 283.089,101.863 282.597,101.795 282.131,101.66 C 281.665,101.523 281.209,101.312 280.762,101.024 C 279.771,100.38 279.016,99.48 278.497,98.325 C 277.978,97.16801 277.717,95.80601 277.712,94.23901 C 277.726,91.937 278.244,90.145 279.267,88.86101 C 280.289,87.578 281.736,86.926 283.608,86.90501 C 284.375,86.90501 285.064,87.036 285.678,87.299 C 286.291,87.561 286.851,87.95901 287.355,88.493 C 287.396,88.148 287.432,87.886 287.465,87.706 C 287.497,87.527 287.548,87.33701 287.616,87.136 L 290.173,87.136"
               id="path2472"
               style="fill:#231f20;fill-opacity:1;fill-rule:evenodd;stroke:none" /><path
               d="M 321.955,107.03 L 319.05,107.03 L 316.93,96.953 C 316.781,96.259 316.629,95.492 316.474,94.65 C 316.318,93.81 316.177,93.019 316.05,92.27801 C 315.923,91.536 315.829,90.968 315.768,90.57201 L 315.594,90.57201 C 315.563,90.87601 315.496,91.34901 315.394,91.99 C 315.291,92.631 315.167,93.34801 315.02,94.14 C 314.872,94.93201 314.715,95.706 314.548,96.46201 L 312.254,107.03 L 309.029,107.03 L 306.706,96.52 C 306.459,95.359 306.242,94.245 306.056,93.178 C 305.871,92.11101 305.719,91.21301 305.603,90.485 L 305.428,90.485 C 305.333,91.11 305.204,91.954 305.043,93.01601 C 304.882,94.077 304.652,95.332 304.354,96.78 L 302.146,107.03 L 299.125,107.03 L 303.859,87.078 L 307.316,87.078 L 309.465,97.21301 C 309.689,98.28101 309.895,99.35 310.082,100.418 C 310.27,101.486 310.403,102.295 310.481,102.844 L 310.656,102.844 C 310.729,102.225 310.852,101.419 311.022,100.425 C 311.193,99.43101 311.41,98.32201 311.673,97.09701 L 313.88,87.078 L 317.307,87.078 L 321.955,107.03"
               id="path2474"
               style="fill:#231f20;fill-opacity:1;fill-rule:evenodd;stroke:none" /><path
               d="M 327.906,106.048 C 327.892,106.609 327.703,107.069 327.34,107.427 C 326.978,107.786 326.526,107.971 325.99,107.983 C 325.453,107.969 325.008,107.78 324.653,107.416 C 324.299,107.052 324.115,106.596 324.102,106.048 C 324.113,105.514 324.293,105.066 324.639,104.705 C 324.985,104.345 325.426,104.157 325.961,104.143 C 326.512,104.157 326.971,104.345 327.336,104.705 C 327.702,105.066 327.893,105.514 327.906,106.048 z M 327.354,87.136 L 327.354,101.948 L 324.595,101.515 L 324.595,87.136 L 327.354,87.136"
               id="path2476"
               style="fill:#231f20;fill-opacity:1;fill-rule:evenodd;stroke:none" /><path
               d="M 339.802,101.919 C 339.685,101.963 339.549,101.998 339.396,102.024 C 339.241,102.05 339.076,102.063 338.901,102.063 C 338.137,102.063 337.431,101.854 336.785,101.436 C 336.139,101.017 335.528,100.389 334.951,99.552 L 334.951,99.811 C 334.947,100.186 334.897,100.578 334.803,100.988 C 334.707,101.398 334.593,101.747 334.458,102.035 L 331.873,101.371 C 332.048,100.939 332.184,100.446 332.279,99.89101 C 332.375,99.33601 332.423,98.62701 332.425,97.762 L 332.425,87.136 L 335.097,87.136 L 335.097,96.46201 C 335.121,97.28 335.421,97.969 335.997,98.53 C 336.573,99.092 337.279,99.384 338.117,99.40701 C 338.26,99.40701 338.389,99.39301 338.506,99.368 C 338.622,99.342 338.744,99.30701 338.872,99.26301 L 339.802,101.919"
               id="path2478"
               style="fill:#231f20;fill-opacity:1;fill-rule:evenodd;stroke:none" /><path
               d="M 349.024,101.602 L 345.481,101.602 C 345.485,102.362 345.514,103.138 345.568,103.93 C 345.623,104.722 345.682,105.39 345.743,105.933 L 342.983,105.297 C 342.912,104.734 342.865,104.121 342.842,103.46 C 342.818,102.799 342.808,102.18 342.81,101.602 L 341.066,101.602 L 341.066,99.72501 L 342.81,99.72501 L 342.81,90.399 C 342.816,89.38901 342.919,88.703 343.118,88.342 C 343.317,87.981 343.572,87.68401 343.884,87.454 C 344.13,87.234 344.48,87.05901 344.933,86.93101 C 345.386,86.801 345.859,86.735 346.353,86.732 C 347.306,86.732 348.188,86.93401 348.996,87.33801 L 348.676,88.955 C 348.447,88.854 348.223,88.78201 348.005,88.735 C 347.786,88.689 347.555,88.66601 347.312,88.66601 C 346.597,88.652 346.101,88.818 345.822,89.164 C 345.544,89.511 345.411,90.124 345.423,91.005 L 345.423,99.72501 L 348.299,99.72501 L 349.024,101.602"
               id="path2480"
               style="fill:#231f20;fill-opacity:1;fill-rule:evenodd;stroke:none" /><path
               d="M 362.192,91.58301 C 362.202,92.547 361.906,93.383 361.307,94.091 C 360.706,94.799 359.743,95.31 358.417,95.62501 L 356.528,96.05801 C 355.77,96.22601 355.233,96.467 354.921,96.78 C 354.607,97.093 354.456,97.506 354.467,98.021 C 354.476,98.68 354.705,99.203 355.152,99.592 C 355.602,99.979 356.215,100.178 356.994,100.187 C 357.567,100.185 358.141,100.095 358.715,99.91601 C 359.288,99.73801 359.905,99.481 360.565,99.147 L 361.467,101.024 C 360.865,101.377 360.173,101.661 359.39,101.876 C 358.606,102.091 357.77,102.202 356.878,102.208 C 355.286,102.186 354.018,101.768 353.072,100.952 C 352.128,100.137 351.643,99.05401 351.62,97.703 C 351.624,96.63 351.928,95.75201 352.531,95.06901 C 353.135,94.386 354.013,93.926 355.163,93.68999 L 356.936,93.344 C 357.774,93.187 358.392,92.923 358.787,92.55 C 359.183,92.177 359.379,91.68201 359.375,91.062 C 359.362,90.34701 359.112,89.78 358.623,89.36301 C 358.136,88.94601 357.485,88.733 356.674,88.72401 C 355.854,88.735 355.046,88.87801 354.248,89.15301 C 353.451,89.428 352.701,89.76701 351.997,90.16801 L 351.039,88.262 C 351.892,87.769 352.786,87.39101 353.723,87.12801 C 354.658,86.867 355.575,86.734 356.471,86.732 C 358.196,86.75301 359.574,87.201 360.606,88.075 C 361.638,88.94801 362.166,90.117 362.192,91.58301"
               id="path2482"
               style="fill:#231f20;fill-opacity:1;fill-rule:evenodd;stroke:none" /><path
               d="M 375.643,88.72401 L 374.335,90.37 C 373.896,89.87801 373.417,89.505 372.901,89.25101 C 372.385,88.997 371.856,88.87 371.314,88.869 C 370.892,88.87 370.503,88.94601 370.149,89.096 C 369.795,89.246 369.486,89.45801 369.224,89.735 C 368.845,90.135 368.557,90.677 368.359,91.359 C 368.162,92.04101 368.063,92.886 368.062,93.89201 C 368.06,94.887 368.114,95.74901 368.226,96.48 C 368.336,97.21101 368.514,97.82101 368.759,98.31 C 369.013,98.80501 369.362,99.187 369.808,99.45801 C 370.254,99.728 370.756,99.866 371.314,99.87 C 371.768,99.87501 372.19,99.79201 372.582,99.62 C 372.974,99.44901 373.402,99.15601 373.87,98.743 L 375.265,100.562 C 374.715,101.068 374.115,101.45 373.464,101.706 C 372.813,101.963 372.097,102.092 371.314,102.093 C 370.602,102.091 369.929,101.964 369.296,101.713 C 368.663,101.463 368.077,101.098 367.539,100.62 C 366.827,100.015 366.246,99.204 365.796,98.187 C 365.346,97.17101 365.113,95.854 365.099,94.23901 C 365.098,93.146 365.21,92.17 365.437,91.312 C 365.663,90.454 366.016,89.687 366.493,89.013 C 367.515,87.56901 369.073,86.84801 371.17,86.84801 C 372.082,86.841 372.885,86.984 373.58,87.277 C 374.275,87.57 374.962,88.052 375.643,88.72401"
               id="path2484"
               style="fill:#231f20;fill-opacity:1;fill-rule:evenodd;stroke:none" /><path
               d="M 389.93,87.136 L 389.93,97.44401 C 389.932,98.06801 389.912,98.538 389.871,98.85101 C 389.83,99.165 389.753,99.47601 389.639,99.783 C 389.403,100.442 388.953,100.964 388.288,101.353 C 387.624,101.741 386.854,101.939 385.979,101.948 C 385.444,101.951 384.917,101.873 384.396,101.717 C 383.876,101.561 383.349,101.31 382.813,100.967 C 382.535,100.789 382.286,100.617 382.065,100.451 C 381.845,100.284 381.581,100.061 381.274,99.783 C 381.303,100.16 381.325,100.511 381.34,100.836 C 381.354,101.163 381.361,101.456 381.361,101.717 L 381.361,104.951 C 381.36,105.655 381.333,106.282 381.278,106.831 C 381.223,107.381 381.144,107.87 381.042,108.3 L 378.341,107.752 C 378.443,107.337 378.521,106.882 378.576,106.388 C 378.632,105.893 378.659,105.337 378.66,104.72 L 378.66,87.136 L 381.361,87.136 L 381.361,97.53 C 381.939,98.187 382.568,98.701 383.249,99.07201 C 383.93,99.44301 384.588,99.631 385.225,99.63801 C 385.579,99.634 385.9,99.578 386.187,99.47201 C 386.473,99.367 386.685,99.23901 386.821,99.089 C 386.969,98.93 387.088,98.68 387.178,98.339 C 387.267,97.998 387.313,97.575 387.315,97.06901 L 387.315,87.136 L 389.93,87.136"
               id="path2486"
               style="fill:#231f20;fill-opacity:1;fill-rule:evenodd;stroke:none" /><path
               d="M 402.137,94.23901 L 402.05,90.54301 C 401.706,89.95801 401.267,89.496 400.731,89.15701 C 400.195,88.818 399.618,88.644 399,88.637 C 398.256,88.64301 397.688,88.86301 397.297,89.298 C 396.905,89.733 396.708,90.35 396.705,91.15 C 396.701,91.61501 396.759,92.005 396.875,92.32301 C 396.992,92.64 397.188,92.951 397.46,93.257 C 397.747,93.591 398.204,93.84701 398.829,94.026 C 399.454,94.204 400.266,94.29501 401.266,94.29601 C 401.377,94.29601 401.501,94.29 401.636,94.27901 C 401.77,94.26701 401.937,94.25401 402.137,94.23901 z M 405.912,88.32 C 405.367,88.644 405.027,89.064 404.892,89.579 C 404.757,90.095 404.7,90.84 404.721,91.813 C 404.727,92.894 404.745,93.923 404.779,94.9 C 404.813,95.87601 404.832,96.637 404.837,97.18401 C 404.84,97.869 404.82,98.39 404.779,98.746 C 404.738,99.103 404.66,99.43 404.547,99.72501 C 404.263,100.491 403.757,101.067 403.029,101.454 C 402.302,101.84 401.404,102.035 400.336,102.035 C 398.938,102.006 397.747,101.789 396.764,101.385 C 395.779,100.981 394.937,100.562 394.236,100.129 L 395.456,98.22301 C 396.067,98.68401 396.769,99.07 397.562,99.382 C 398.354,99.69401 399.144,99.856 399.929,99.87 C 400.913,99.856 401.545,99.593 401.824,99.079 C 402.104,98.564 402.227,97.87501 402.194,97.011 L 402.194,96.05801 C 402.009,96.07201 401.836,96.07999 401.675,96.08301 C 401.515,96.08601 401.35,96.08701 401.178,96.08701 C 398.811,96.08201 396.988,95.644 395.71,94.773 C 394.432,93.90201 393.786,92.62701 393.771,90.94801 C 393.786,89.55801 394.207,88.50401 395.035,87.786 C 395.863,87.067 397.01,86.706 398.477,86.702 C 399.316,86.718 400.02,86.84901 400.585,87.094 C 401.151,87.34 401.599,87.61201 401.926,87.909 C 402.253,88.206 402.479,88.43999 402.601,88.609 C 402.778,88.10101 403.033,87.672 403.367,87.32 C 403.7,86.968 404.094,86.705 404.547,86.53 L 405.912,88.32"
               id="path2488"
               style="fill:#231f20;fill-opacity:1;fill-rule:evenodd;stroke:none" /><path
               d="M 417.252,107.434 C 416.801,107.706 416.309,107.905 415.778,108.03 C 415.247,108.154 414.683,108.215 414.086,108.214 C 413.55,108.215 413.062,108.162 412.623,108.052 C 412.185,107.941 411.791,107.765 411.443,107.521 C 411.032,107.253 410.663,106.829 410.336,106.246 C 410.009,105.665 409.836,104.887 409.816,103.911 C 409.816,103.816 409.817,103.603 409.818,103.274 C 409.82,102.945 409.825,102.613 409.834,102.277 C 409.843,101.942 409.855,101.717 409.875,101.602 L 408.451,101.602 L 408.451,99.72501 L 409.846,99.72501 L 409.846,87.136 L 412.547,87.136 L 412.547,99.72501 L 415.684,99.72501 L 416.381,101.602 L 412.518,101.602 L 412.518,103.94 C 412.522,104.681 412.694,105.25 413.033,105.647 C 413.372,106.045 413.849,106.246 414.464,106.25 C 414.795,106.247 415.113,106.196 415.419,106.095 C 415.725,105.995 416.035,105.864 416.352,105.702 L 417.252,107.434"
               id="path2490"
               style="fill:#231f20;fill-opacity:1;fill-rule:evenodd;stroke:none" /><path
               d="M 425.049,101.602 L 421.506,101.602 C 421.509,102.362 421.538,103.138 421.593,103.93 C 421.646,104.722 421.704,105.39 421.767,105.933 L 419.007,105.297 C 418.937,104.734 418.89,104.121 418.865,103.46 C 418.842,102.799 418.831,102.18 418.833,101.602 L 417.09,101.602 L 417.09,99.72501 L 418.833,99.72501 L 418.833,90.399 C 418.839,89.38901 418.942,88.703 419.142,88.342 C 419.341,87.981 419.596,87.68401 419.907,87.454 C 420.154,87.234 420.503,87.05901 420.957,86.93101 C 421.41,86.801 421.884,86.735 422.376,86.732 C 423.33,86.732 424.211,86.93401 425.02,87.33801 L 424.7,88.955 C 424.471,88.854 424.247,88.78201 424.028,88.735 C 423.811,88.689 423.579,88.66601 423.335,88.66601 C 422.621,88.652 422.125,88.818 421.847,89.164 C 421.568,89.511 421.435,90.124 421.447,91.005 L 421.447,99.72501 L 424.322,99.72501 L 425.049,101.602"
               id="path2492"
               style="fill:#231f20;fill-opacity:1;fill-rule:evenodd;stroke:none" /><path
               d="M 159.254,116.01 L 159.254,135.904 L 156.454,135.904 L 156.454,127.732 L 148.86,127.732 L 148.86,135.904 L 146.117,135.904 L 146.117,116.01 L 148.86,116.01 L 148.86,125.452 L 156.454,125.452 L 156.454,116.01 L 159.254,116.01"
               id="path2494"
               style="fill:#231f20;fill-opacity:1;fill-rule:evenodd;stroke:none" /><path
               d="M 173.621,122.997 C 173.611,121.12 173.32,119.757 172.747,118.908 C 172.175,118.059 171.378,117.642 170.358,117.656 C 169.231,117.625 168.387,118.055 167.824,118.944 C 167.261,119.833 166.979,121.368 166.979,123.545 C 166.971,125.358 167.227,126.693 167.745,127.552 C 168.263,128.411 169.096,128.837 170.243,128.829 C 171.293,128.867 172.115,128.454 172.711,127.592 C 173.307,126.729 173.61,125.198 173.621,122.997 z M 176.595,123.112 C 176.595,124.581 176.363,125.898 175.897,127.064 C 175.432,128.229 174.729,129.153 173.789,129.835 C 172.848,130.516 171.666,130.864 170.243,130.879 C 168.316,130.854 166.805,130.168 165.709,128.822 C 164.613,127.476 164.055,125.62 164.035,123.257 C 164.054,120.879 164.614,119.016 165.717,117.666 C 166.818,116.317 168.346,115.63 170.3,115.605 C 172.243,115.631 173.771,116.309 174.887,117.638 C 176.003,118.966 176.572,120.791 176.595,123.112"
               id="path2496"
               style="fill:#231f20;fill-opacity:1;fill-rule:evenodd;stroke:none" /><path
               d="M 190.999,117.598 L 189.7,119.244 C 189.262,118.751 188.787,118.378 188.274,118.124 C 187.761,117.871 187.235,117.743 186.697,117.742 C 186.276,117.744 185.89,117.819 185.538,117.969 C 185.186,118.119 184.879,118.332 184.618,118.608 C 184.241,119.009 183.955,119.55 183.759,120.232 C 183.563,120.914 183.464,121.759 183.463,122.766 C 183.461,123.76 183.515,124.623 183.625,125.354 C 183.735,126.085 183.912,126.695 184.156,127.184 C 184.408,127.678 184.756,128.061 185.199,128.331 C 185.642,128.602 186.142,128.739 186.697,128.743 C 187.147,128.748 187.567,128.665 187.956,128.494 C 188.345,128.322 188.773,128.03 189.237,127.617 L 190.623,129.436 C 190.077,129.942 189.481,130.323 188.833,130.58 C 188.186,130.837 187.474,130.966 186.697,130.966 C 185.988,130.964 185.319,130.838 184.69,130.587 C 184.061,130.336 183.479,129.971 182.943,129.493 C 182.235,128.888 181.658,128.077 181.21,127.061 C 180.763,126.044 180.532,124.728 180.518,123.112 C 180.516,122.019 180.627,121.044 180.853,120.185 C 181.079,119.327 181.429,118.56 181.903,117.886 C 182.919,116.443 184.468,115.721 186.552,115.721 C 187.459,115.714 188.258,115.857 188.949,116.15 C 189.639,116.443 190.322,116.926 190.999,117.598"
               id="path2498"
               style="fill:#231f20;fill-opacity:1;fill-rule:evenodd;stroke:none" /><path
               d="M 205.924,116.01 L 205.924,126.318 C 205.926,126.942 205.907,127.411 205.866,127.725 C 205.825,128.039 205.748,128.35 205.636,128.656 C 205.4,129.315 204.953,129.838 204.292,130.226 C 203.632,130.614 202.867,130.813 201.997,130.822 C 201.465,130.825 200.94,130.747 200.423,130.591 C 199.906,130.434 199.381,130.184 198.85,129.84 C 198.573,129.663 198.325,129.491 198.106,129.324 C 197.888,129.158 197.625,128.935 197.32,128.656 C 197.348,129.033 197.37,129.384 197.385,129.71 C 197.399,130.036 197.406,130.329 197.406,130.591 L 197.406,133.825 C 197.405,134.529 197.378,135.156 197.323,135.705 C 197.269,136.254 197.19,136.744 197.088,137.174 L 194.403,136.625 C 194.505,136.21 194.583,135.755 194.638,135.261 C 194.693,134.767 194.72,134.211 194.721,133.594 L 194.721,116.01 L 197.406,116.01 L 197.406,126.404 C 197.981,127.06 198.607,127.574 199.283,127.945 C 199.959,128.317 200.614,128.505 201.247,128.512 C 201.599,128.507 201.918,128.452 202.203,128.346 C 202.487,128.24 202.698,128.112 202.835,127.963 C 202.981,127.803 203.099,127.553 203.188,127.212 C 203.277,126.872 203.323,126.449 203.325,125.942 L 203.325,116.01 L 205.924,116.01"
               id="path2500"
               style="fill:#231f20;fill-opacity:1;fill-rule:evenodd;stroke:none" /><path
               d="M 221.64,120.456 C 221.648,121.42 221.355,122.257 220.759,122.965 C 220.162,123.673 219.204,124.184 217.886,124.498 L 216.009,124.932 C 215.254,125.1 214.721,125.341 214.41,125.653 C 214.1,125.966 213.949,126.38 213.959,126.895 C 213.968,127.554 214.195,128.077 214.642,128.465 C 215.087,128.853 215.697,129.052 216.471,129.06 C 217.042,129.059 217.611,128.969 218.182,128.79 C 218.752,128.611 219.365,128.355 220.022,128.021 L 220.918,129.897 C 220.319,130.25 219.631,130.535 218.854,130.75 C 218.075,130.965 217.242,131.076 216.355,131.081 C 214.774,131.06 213.513,130.642 212.573,129.826 C 211.634,129.01 211.152,127.927 211.129,126.577 C 211.134,125.504 211.436,124.626 212.035,123.943 C 212.635,123.259 213.507,122.8 214.652,122.564 L 216.413,122.217 C 217.247,122.061 217.86,121.796 218.254,121.424 C 218.647,121.051 218.843,120.555 218.839,119.936 C 218.826,119.22 218.577,118.653 218.092,118.236 C 217.605,117.819 216.96,117.607 216.153,117.598 C 215.339,117.609 214.535,117.752 213.743,118.027 C 212.95,118.302 212.204,118.64 211.505,119.041 L 210.552,117.136 C 211.4,116.642 212.289,116.265 213.219,116.002 C 214.15,115.74 215.061,115.608 215.951,115.605 C 217.667,115.627 219.037,116.075 220.063,116.948 C 221.088,117.822 221.613,118.991 221.64,120.456"
               id="path2502"
               style="fill:#231f20;fill-opacity:1;fill-rule:evenodd;stroke:none" /><path
               d="M 235.732,117.598 L 234.433,119.244 C 233.995,118.751 233.521,118.378 233.007,118.124 C 232.494,117.871 231.969,117.743 231.43,117.742 C 231.01,117.744 230.623,117.819 230.271,117.969 C 229.92,118.119 229.613,118.332 229.351,118.608 C 228.975,119.009 228.688,119.55 228.492,120.232 C 228.296,120.914 228.197,121.759 228.196,122.766 C 228.194,123.76 228.248,124.623 228.358,125.354 C 228.469,126.085 228.646,126.695 228.889,127.184 C 229.141,127.678 229.489,128.061 229.932,128.331 C 230.375,128.602 230.875,128.739 231.43,128.743 C 231.881,128.748 232.301,128.665 232.689,128.494 C 233.079,128.322 233.506,128.03 233.971,127.617 L 235.356,129.436 C 234.811,129.942 234.214,130.323 233.566,130.58 C 232.919,130.837 232.207,130.966 231.43,130.966 C 230.722,130.964 230.052,130.838 229.423,130.587 C 228.794,130.336 228.212,129.971 227.677,129.493 C 226.969,128.888 226.392,128.077 225.944,127.061 C 225.496,126.044 225.266,124.728 225.251,123.112 C 225.249,122.019 225.361,121.044 225.587,120.185 C 225.813,119.327 226.162,118.56 226.637,117.886 C 227.652,116.443 229.201,115.721 231.285,115.721 C 232.192,115.714 232.991,115.857 233.682,116.15 C 234.373,116.443 235.056,116.926 235.732,117.598"
               id="path2504"
               style="fill:#231f20;fill-opacity:1;fill-rule:evenodd;stroke:none" /><path
               d="M 250.657,116.01 L 250.657,126.318 C 250.66,126.942 250.641,127.411 250.6,127.725 C 250.559,128.039 250.481,128.35 250.369,128.656 C 250.134,129.315 249.687,129.838 249.026,130.226 C 248.366,130.614 247.601,130.813 246.73,130.822 C 246.199,130.825 245.674,130.747 245.156,130.591 C 244.64,130.434 244.115,130.184 243.583,129.84 C 243.307,129.663 243.059,129.491 242.84,129.324 C 242.621,129.158 242.358,128.935 242.053,128.656 C 242.082,129.033 242.104,129.384 242.118,129.71 C 242.133,130.036 242.14,130.329 242.14,130.591 L 242.14,133.825 C 242.14,134.529 242.111,135.156 242.057,135.705 C 242.002,136.254 241.924,136.744 241.822,137.174 L 239.137,136.625 C 239.238,136.21 239.316,135.755 239.371,135.261 C 239.426,134.767 239.453,134.211 239.454,133.594 L 239.454,116.01 L 242.14,116.01 L 242.14,126.404 C 242.715,127.06 243.34,127.574 244.017,127.945 C 244.692,128.317 245.347,128.505 245.979,128.512 C 246.333,128.507 246.651,128.452 246.937,128.346 C 247.221,128.24 247.431,128.112 247.568,127.963 C 247.715,127.803 247.833,127.553 247.922,127.212 C 248.011,126.872 248.056,126.449 248.059,125.942 L 248.059,116.01 L 250.657,116.01"
               id="path2506"
               style="fill:#231f20;fill-opacity:1;fill-rule:evenodd;stroke:none" /><path
               d="M 268.076,116.963 C 267.786,117.21 267.564,117.588 267.412,118.096 C 267.26,118.603 267.183,119.226 267.181,119.965 L 267.181,130.851 L 264.554,130.33 L 264.554,119.936 C 264.232,119.286 263.771,118.747 263.168,118.319 C 262.565,117.892 261.93,117.671 261.262,117.656 C 260.938,117.66 260.626,117.723 260.327,117.843 C 260.029,117.964 259.782,118.113 259.588,118.291 C 259.333,118.519 259.157,118.82 259.061,119.193 C 258.965,119.566 258.919,120.112 258.924,120.831 L 258.924,130.909 L 256.296,130.389 L 256.296,120.11 C 256.295,119.59 256.319,119.128 256.372,118.724 C 256.424,118.319 256.515,117.973 256.643,117.684 C 256.955,117.013 257.449,116.486 258.126,116.104 C 258.803,115.721 259.607,115.526 260.54,115.518 C 261.434,115.517 262.239,115.687 262.959,116.027 C 263.678,116.368 264.325,116.892 264.9,117.598 C 265.025,117.116 265.193,116.715 265.406,116.396 C 265.617,116.076 265.901,115.784 266.258,115.518 L 268.076,116.963"
               id="path2508"
               style="fill:#231f20;fill-opacity:1;fill-rule:evenodd;stroke:none" /><path
               d="M 277.304,116.038 L 276.842,117.684 C 276.677,117.642 276.51,117.64 276.341,117.677 C 276.171,117.714 276.04,117.784 275.947,117.886 C 275.805,117.993 275.707,118.191 275.651,118.478 C 275.596,118.766 275.569,119.281 275.571,120.023 L 275.571,133.045 C 275.577,133.94 275.566,134.734 275.539,135.423 C 275.512,136.113 275.437,136.697 275.312,137.174 L 272.54,136.597 C 272.654,136.059 272.736,135.481 272.785,134.864 C 272.835,134.247 272.858,133.438 272.857,132.438 L 272.857,119.33 C 272.854,118.644 272.891,118.124 272.97,117.771 C 273.049,117.417 273.193,117.1 273.406,116.818 C 273.675,116.432 273.988,116.151 274.348,115.977 C 274.707,115.804 275.144,115.718 275.658,115.721 C 275.971,115.72 276.255,115.743 276.514,115.793 C 276.771,115.842 277.035,115.924 277.304,116.038"
               id="path2510"
               style="fill:#231f20;fill-opacity:1;fill-rule:evenodd;stroke:none" /><path
               d="M 289.39,124.643 L 283.384,124.643 C 283.384,125.97 283.637,127.011 284.142,127.765 C 284.647,128.518 285.405,128.902 286.416,128.916 C 286.878,128.91 287.282,128.814 287.628,128.627 C 287.975,128.441 288.264,128.201 288.494,127.905 C 288.784,127.54 289.006,127.08 289.159,126.523 C 289.312,125.967 289.389,125.34 289.39,124.643 z M 292.161,122.679 L 292.161,123.142 C 292.154,124.773 292.017,126.065 291.746,127.018 C 291.477,127.971 291.027,128.758 290.4,129.378 C 289.395,130.418 288.086,130.937 286.474,130.937 C 285.581,130.939 284.774,130.777 284.055,130.45 C 283.336,130.123 282.688,129.621 282.113,128.945 C 281.498,128.225 281.055,127.421 280.782,126.534 C 280.509,125.647 280.376,124.584 280.381,123.344 C 280.399,120.953 280.976,119.086 282.109,117.742 C 283.244,116.398 284.823,115.715 286.849,115.692 C 287.789,115.691 288.681,115.844 289.52,116.15 C 290.359,116.456 291.134,116.919 291.844,117.54 L 290.834,119.128 C 290.315,118.666 289.763,118.319 289.177,118.089 C 288.591,117.858 287.959,117.742 287.282,117.742 C 286.584,117.741 285.951,117.881 285.384,118.161 C 284.815,118.441 284.342,118.869 283.961,119.445 C 283.746,119.791 283.592,120.204 283.496,120.684 C 283.4,121.163 283.354,121.712 283.354,122.333 L 283.354,122.679 L 292.161,122.679"
               id="path2512"
               style="fill:#231f20;fill-opacity:1;fill-rule:evenodd;stroke:none" /><path
               d="M 304.148,116.01 L 306.979,116.01 L 306.979,135.904 L 304.148,135.904 L 304.148,116.01 z M 317.807,116.01 L 310.271,126.663 L 317.546,135.904 L 314.053,135.904 L 307.094,126.635 L 314.197,116.01 L 317.807,116.01"
               id="path2514"
               style="fill:#231f20;fill-opacity:1;fill-rule:evenodd;stroke:none" /><path
               d="M 328.18,123.112 L 328.093,119.417 C 327.752,118.832 327.314,118.37 326.783,118.031 C 326.251,117.691 325.677,117.518 325.062,117.511 C 324.321,117.517 323.758,117.736 323.368,118.172 C 322.979,118.606 322.783,119.224 322.78,120.023 C 322.777,120.488 322.834,120.879 322.95,121.196 C 323.065,121.513 323.26,121.825 323.531,122.131 C 323.816,122.465 324.271,122.721 324.892,122.9 C 325.513,123.078 326.32,123.168 327.313,123.17 C 327.425,123.169 327.548,123.164 327.682,123.152 C 327.814,123.141 327.98,123.127 328.18,123.112 z M 331.934,117.193 C 331.392,117.517 331.053,117.938 330.919,118.453 C 330.784,118.969 330.729,119.713 330.75,120.687 C 330.754,121.768 330.773,122.797 330.807,123.773 C 330.841,124.749 330.86,125.511 330.864,126.058 C 330.867,126.743 330.848,127.264 330.807,127.62 C 330.767,127.977 330.689,128.303 330.576,128.599 C 330.294,129.364 329.79,129.941 329.067,130.327 C 328.345,130.714 327.452,130.908 326.39,130.909 C 325,130.879 323.816,130.663 322.838,130.259 C 321.859,129.854 321.022,129.436 320.326,129.003 L 321.538,127.097 C 322.146,127.558 322.844,127.943 323.632,128.255 C 324.42,128.568 325.204,128.73 325.985,128.743 C 326.963,128.73 327.591,128.467 327.869,127.952 C 328.146,127.438 328.27,126.749 328.237,125.884 L 328.237,124.932 C 328.053,124.945 327.881,124.954 327.721,124.957 C 327.562,124.96 327.396,124.961 327.227,124.96 C 324.873,124.956 323.062,124.518 321.791,123.646 C 320.521,122.776 319.878,121.5 319.864,119.821 C 319.878,118.432 320.297,117.377 321.12,116.659 C 321.943,115.941 323.084,115.58 324.541,115.577 C 325.376,115.592 326.074,115.722 326.637,115.968 C 327.2,116.214 327.645,116.485 327.971,116.783 C 328.296,117.08 328.519,117.313 328.642,117.482 C 328.818,116.975 329.071,116.546 329.403,116.194 C 329.734,115.842 330.126,115.579 330.576,115.404 L 331.934,117.193"
               id="path2516"
               style="fill:#231f20;fill-opacity:1;fill-rule:evenodd;stroke:none" /><path
               d="M 343.899,130.793 C 343.783,130.837 343.648,130.871 343.495,130.897 C 343.343,130.923 343.179,130.936 343.005,130.937 C 342.243,130.937 341.542,130.728 340.9,130.309 C 340.258,129.891 339.651,129.263 339.078,128.425 L 339.078,128.685 C 339.073,129.059 339.023,129.452 338.93,129.862 C 338.835,130.272 338.721,130.621 338.587,130.909 L 336.017,130.245 C 336.191,129.812 336.326,129.319 336.421,128.764 C 336.516,128.21 336.564,127.5 336.565,126.635 L 336.565,116.01 L 339.222,116.01 L 339.222,125.336 C 339.246,126.153 339.545,126.843 340.117,127.404 C 340.689,127.965 341.393,128.258 342.225,128.281 C 342.366,128.28 342.495,128.267 342.611,128.242 C 342.727,128.216 342.849,128.18 342.976,128.137 L 343.899,130.793"
               id="path2518"
               style="fill:#231f20;fill-opacity:1;fill-rule:evenodd;stroke:none" /><path
               d="M 351.654,116.038 L 351.191,117.684 C 351.026,117.642 350.859,117.64 350.69,117.677 C 350.521,117.714 350.391,117.784 350.297,117.886 C 350.155,117.993 350.057,118.191 350.001,118.478 C 349.945,118.766 349.919,119.281 349.922,120.023 L 349.922,133.045 C 349.927,133.94 349.916,134.734 349.889,135.423 C 349.862,136.113 349.786,136.697 349.661,137.174 L 346.89,136.597 C 347.004,136.059 347.086,135.481 347.135,134.864 C 347.185,134.247 347.208,133.438 347.207,132.438 L 347.207,119.33 C 347.203,118.644 347.24,118.124 347.319,117.771 C 347.398,117.417 347.543,117.1 347.756,116.818 C 348.024,116.432 348.339,116.151 348.698,115.977 C 349.057,115.804 349.493,115.718 350.008,115.721 C 350.32,115.72 350.605,115.743 350.863,115.793 C 351.121,115.842 351.385,115.924 351.654,116.038"
               id="path2520"
               style="fill:#231f20;fill-opacity:1;fill-rule:evenodd;stroke:none" /><path
               d="M 365.53,120.456 C 365.539,121.42 365.246,122.257 364.649,122.965 C 364.052,123.673 363.095,124.184 361.776,124.498 L 359.899,124.932 C 359.145,125.1 358.611,125.341 358.301,125.653 C 357.989,125.966 357.839,126.38 357.85,126.895 C 357.858,127.554 358.086,128.077 358.531,128.465 C 358.977,128.853 359.587,129.052 360.361,129.06 C 360.932,129.059 361.502,128.969 362.072,128.79 C 362.643,128.611 363.256,128.355 363.913,128.021 L 364.808,129.897 C 364.21,130.25 363.521,130.535 362.743,130.75 C 361.965,130.965 361.133,131.076 360.246,131.081 C 358.664,131.06 357.402,130.642 356.464,129.826 C 355.523,129.01 355.043,127.927 355.02,126.577 C 355.023,125.504 355.325,124.626 355.926,123.943 C 356.525,123.259 357.397,122.8 358.542,122.564 L 360.303,122.217 C 361.137,122.061 361.751,121.796 362.145,121.424 C 362.537,121.051 362.732,120.555 362.729,119.936 C 362.717,119.22 362.467,118.653 361.981,118.236 C 361.496,117.819 360.851,117.607 360.044,117.598 C 359.229,117.609 358.426,117.752 357.633,118.027 C 356.84,118.302 356.095,118.64 355.396,119.041 L 354.442,117.136 C 355.29,116.642 356.179,116.265 357.109,116.002 C 358.04,115.74 358.95,115.608 359.842,115.605 C 361.557,115.627 362.927,116.075 363.952,116.948 C 364.978,117.822 365.504,118.991 365.53,120.456"
               id="path2522"
               style="fill:#231f20;fill-opacity:1;fill-rule:evenodd;stroke:none" /><path
               d="M 377.457,130.793 C 377.34,130.837 377.205,130.871 377.053,130.897 C 376.9,130.923 376.736,130.936 376.562,130.937 C 375.801,130.937 375.1,130.728 374.457,130.309 C 373.815,129.891 373.208,129.263 372.635,128.425 L 372.635,128.685 C 372.631,129.059 372.581,129.452 372.487,129.862 C 372.393,130.272 372.278,130.621 372.145,130.909 L 369.574,130.245 C 369.749,129.812 369.884,129.319 369.979,128.764 C 370.073,128.21 370.121,127.5 370.123,126.635 L 370.123,116.01 L 372.779,116.01 L 372.779,125.336 C 372.804,126.153 373.102,126.843 373.674,127.404 C 374.247,127.965 374.95,128.258 375.782,128.281 C 375.924,128.28 376.053,128.267 376.168,128.242 C 376.284,128.216 376.406,128.18 376.533,128.137 L 377.457,130.793"
               id="path2524"
               style="fill:#231f20;fill-opacity:1;fill-rule:evenodd;stroke:none" /><path
               d="M 392.4,116.963 C 392.11,117.21 391.89,117.588 391.736,118.096 C 391.584,118.603 391.507,119.226 391.506,119.965 L 391.506,130.851 L 388.878,130.33 L 388.878,119.936 C 388.557,119.286 388.095,118.747 387.492,118.319 C 386.89,117.892 386.254,117.671 385.586,117.656 C 385.263,117.66 384.95,117.723 384.651,117.843 C 384.353,117.964 384.106,118.113 383.912,118.291 C 383.656,118.519 383.481,118.82 383.385,119.193 C 383.289,119.566 383.243,120.112 383.248,120.831 L 383.248,130.909 L 380.62,130.389 L 380.62,120.11 C 380.619,119.59 380.644,119.128 380.696,118.724 C 380.748,118.319 380.839,117.973 380.967,117.684 C 381.279,117.013 381.773,116.486 382.45,116.104 C 383.127,115.721 383.932,115.526 384.864,115.518 C 385.757,115.517 386.563,115.687 387.283,116.027 C 388.002,116.368 388.649,116.892 389.225,117.598 C 389.35,117.116 389.518,116.715 389.73,116.396 C 389.941,116.076 390.226,115.784 390.582,115.518 L 392.4,116.963"
               id="path2526"
               style="fill:#231f20;fill-opacity:1;fill-rule:evenodd;stroke:none" /><path
               d="M 408.5,116.01 L 408.5,126.318 C 408.503,126.942 408.483,127.411 408.442,127.725 C 408.401,128.039 408.324,128.35 408.211,128.656 C 407.977,129.315 407.529,129.838 406.869,130.226 C 406.209,130.614 405.443,130.813 404.573,130.822 C 404.042,130.825 403.518,130.747 403,130.591 C 402.482,130.434 401.958,130.184 401.426,129.84 C 401.149,129.663 400.901,129.491 400.683,129.324 C 400.464,129.158 400.201,128.935 399.896,128.656 C 399.925,129.033 399.946,129.384 399.961,129.71 C 399.976,130.036 399.982,130.329 399.982,130.591 L 399.982,133.825 C 399.982,134.529 399.954,135.156 399.899,135.705 C 399.845,136.254 399.767,136.744 399.665,137.174 L 396.979,136.625 C 397.081,136.21 397.159,135.755 397.215,135.261 C 397.269,134.767 397.296,134.211 397.298,133.594 L 397.298,116.01 L 399.982,116.01 L 399.982,126.404 C 400.558,127.06 401.184,127.574 401.859,127.945 C 402.535,128.317 403.189,128.505 403.822,128.512 C 404.176,128.507 404.494,128.452 404.779,128.346 C 405.063,128.24 405.274,128.112 405.411,127.963 C 405.558,127.803 405.676,127.553 405.765,127.212 C 405.854,126.872 405.899,126.449 405.901,125.942 L 405.901,116.01 L 408.5,116.01"
               id="path2528"
               style="fill:#231f20;fill-opacity:1;fill-rule:evenodd;stroke:none" /><path
               d="M 422.426,124.643 L 416.42,124.643 C 416.42,125.97 416.673,127.011 417.178,127.765 C 417.683,128.518 418.441,128.902 419.451,128.916 C 419.914,128.91 420.317,128.814 420.664,128.627 C 421.011,128.441 421.3,128.201 421.53,127.905 C 421.82,127.54 422.042,127.08 422.194,126.523 C 422.348,125.967 422.425,125.34 422.426,124.643 z M 425.197,122.679 L 425.197,123.142 C 425.19,124.773 425.053,126.065 424.782,127.018 C 424.513,127.971 424.063,128.758 423.436,129.378 C 422.431,130.418 421.122,130.937 419.509,130.937 C 418.616,130.939 417.811,130.777 417.091,130.45 C 416.372,130.123 415.725,129.621 415.149,128.945 C 414.534,128.225 414.09,127.421 413.817,126.534 C 413.545,125.647 413.412,124.584 413.417,123.344 C 413.436,120.953 414.012,119.086 415.146,117.742 C 416.279,116.398 417.859,115.715 419.885,115.692 C 420.825,115.691 421.716,115.844 422.556,116.15 C 423.395,116.456 424.17,116.919 424.88,117.54 L 423.869,119.128 C 423.352,118.666 422.799,118.319 422.212,118.089 C 421.626,117.858 420.995,117.742 420.317,117.742 C 419.62,117.741 418.987,117.881 418.42,118.161 C 417.852,118.441 417.377,118.869 416.997,119.445 C 416.782,119.791 416.628,120.204 416.531,120.684 C 416.436,121.163 416.39,121.712 416.391,122.333 L 416.391,122.679 L 425.197,122.679"
               id="path2530"
               style="fill:#231f20;fill-opacity:1;fill-rule:evenodd;stroke:none" /><path
               d="M 153.757,60.472 L 153.757,68.996 L 151.837,68.996 L 151.837,61.037 C 151.837,59.462 151.152,58.623 149.75,58.623 C 148.332,58.623 147.697,59.222 147.697,61.037 L 147.697,68.996 L 145.761,68.996 L 145.761,60.455 C 145.761,58.554 146.713,56.945 149.75,56.945 C 152.288,56.945 153.757,58.298 153.757,60.472"
               id="path2532"
               style="fill:#ed1c24;fill-opacity:1;fill-rule:evenodd;stroke:none" /><path
               d="M 165.755,57.151 L 165.755,68.996 L 163.936,68.996 L 163.97,63.587 C 163.97,62.509 164.086,60.814 164.136,60.215 L 164.086,60.163 C 163.936,60.711 163.436,62.115 162.901,63.211 L 160.097,68.996 L 157.927,68.996 L 157.927,57.151 L 159.813,57.151 L 159.747,62.885 C 159.729,63.93 159.713,65.179 159.629,66.172 L 159.68,66.22401 C 159.896,65.521 160.531,64.03201 161.148,62.714 L 163.735,57.151 L 165.755,57.151"
               id="path2534"
               style="fill:#ed1c24;fill-opacity:1;fill-rule:evenodd;stroke:none" /><path
               d="M 169.975,68.996 L 171.94399,68.996 L 171.94399,57.15 L 169.975,57.15 L 169.975,68.996 z"
               id="path2536"
               style="fill:#ed1c24;fill-opacity:1;fill-rule:nonzero;stroke:none" /><path
               d="M 184.109,68.996 L 182.106,68.996 L 179.987,62.389 C 179.419,60.625 179.286,59.907 179.286,59.907 L 179.252,59.907 C 179.252,59.907 179.119,60.78 178.651,62.286 L 176.565,68.996 L 174.461,68.996 L 178.351,57.099 L 180.137,57.099 L 184.109,68.996"
               id="path2538"
               style="fill:#ed1c24;fill-opacity:1;fill-rule:evenodd;stroke:none" /><path
               d="M 193.285,57.151 L 193.285,58.829 L 188.661,58.829 L 188.661,62.526 L 192.183,62.526 L 192.183,64.152 L 188.627,64.152 L 188.627,67.387 L 192.867,67.387 L 193.118,68.996 L 186.708,68.996 L 186.708,57.151 L 193.285,57.151"
               id="path2540"
               style="fill:#ed1c24;fill-opacity:1;fill-rule:evenodd;stroke:none" /><path
               d="M 199.74,67.40501 C 201.443,67.40501 202.077,66.788 202.077,65.59 C 202.077,64.97401 201.877,64.47701 201.56,64.152 C 201.209,63.792 200.675,63.656 199.674,63.656 L 198.688,63.656 L 198.688,67.40501 L 199.74,67.40501 z M 204.698,57.151 L 202.995,59.992 C 202.395,60.985 201.626,62.132 201.209,62.354 C 203.012,62.354 204.08,63.913 204.08,65.607 C 204.08,67.455 202.912,68.996 200.325,68.996 L 196.802,68.996 L 196.802,57.151 L 198.688,57.151 L 198.688,62.268 C 199.056,62.252 199.223,62.132 199.44,61.91 C 200.074,61.259 200.608,60.437 201.41,58.982 L 202.411,57.151 L 204.698,57.151"
               id="path2542"
               style="fill:#ed1c24;fill-opacity:1;fill-rule:evenodd;stroke:none" /><path
               d="M 215.141,60.728 C 215.141,62.509 213.973,63.604 212.304,64.1 L 210.935,64.512 C 209.8,64.854 209.399,65.23 209.399,65.967 C 209.399,66.942 210.15,67.576 211.285,67.576 C 212.203,67.576 212.938,67.319 214.006,66.66801 L 214.874,68.055 C 213.856,68.791 212.537,69.18401 211.218,69.18401 C 208.898,69.18401 207.295,67.764 207.295,65.675 C 207.295,64.991 207.463,64.426 207.78,63.947 C 208.214,63.279 208.965,62.833 210.017,62.526 L 211.251,62.166 C 212.437,61.824 212.971,61.276 212.971,60.403 C 212.971,59.222 212.12,58.52 210.701,58.52 C 209.533,58.52 208.615,58.879 207.58,59.496 L 206.845,57.99 C 207.98,57.288 209.315,56.928 210.634,56.928 C 213.589,56.928 215.141,58.76 215.141,60.728"
               id="path2544"
               style="fill:#ed1c24;fill-opacity:1;fill-rule:evenodd;stroke:none" /><path
               d="M 218.626,68.996 L 220.596,68.996 L 220.596,57.15 L 218.626,57.15 L 218.626,68.996 z"
               id="path2546"
               style="fill:#ed1c24;fill-opacity:1;fill-rule:nonzero;stroke:none" /><path
               d="M 231.443,68.996 L 223.447,68.996 L 223.447,67.353 L 226.368,67.353 L 226.368,57.151 L 228.288,57.151 L 228.288,67.353 L 231.192,67.353 L 231.443,68.996"
               id="path2548"
               style="fill:#ed1c24;fill-opacity:1;fill-rule:evenodd;stroke:none" /><path
               d="M 242.139,68.996 L 239.902,68.996 L 238.133,65.247 C 237.832,64.597 237.498,63.758 237.498,63.758 C 237.498,63.758 237.231,64.529 236.881,65.28201 L 235.145,68.996 L 232.824,68.996 L 236.463,61.944 L 236.463,57.151 L 238.449,57.151 L 238.449,61.927 L 242.139,68.996"
               id="path2550"
               style="fill:#ed1c24;fill-opacity:1;fill-rule:evenodd;stroke:none" /><path
               d="M 253.465,58.452 C 251.495,58.452 250.744,60.146 250.744,63.193 C 250.744,66.035 251.479,67.644 253.415,67.644 C 255.485,67.644 256.069,65.829 256.069,62.936 C 256.069,59.752 255.185,58.452 253.465,58.452 z M 253.515,56.962 C 256.52,56.962 258.256,59.359 258.256,63.056 C 258.256,66.514 256.687,69.16801 253.432,69.16801 C 250.544,69.16801 248.608,66.97601 248.608,63.074 C 248.608,59.564 250.228,56.962 253.515,56.962"
               id="path2552"
               style="fill:#ed1c24;fill-opacity:1;fill-rule:evenodd;stroke:none" /><path
               d="M 267.635,68.996 L 261.525,68.996 L 261.525,57.151 L 263.445,57.151 L 263.445,62.577 L 266.667,62.577 L 266.667,64.16901 L 263.445,64.16901 L 263.445,67.387 L 267.401,67.387 L 267.635,68.996"
               id="path2554"
               style="fill:#ed1c24;fill-opacity:1;fill-rule:evenodd;stroke:none" /><path
               d="M 279.913,61.91 L 277.075,61.91 C 277.343,62.697 278.527,66.959 278.527,66.959 L 278.544,66.959 C 278.628,66.497 279.797,62.166 279.913,61.91 z M 283.385,57.151 L 279.696,69.013 L 277.477,69.013 L 273.687,57.151 L 275.674,57.151 L 276.608,60.267 L 280.347,60.267 L 281.281,57.151 L 283.385,57.151"
               id="path2556"
               style="fill:#ed1c24;fill-opacity:1;fill-rule:evenodd;stroke:none" /><path
               d="M 289.306,67.40501 C 290.057,67.40501 290.557,67.19901 290.907,66.82301 C 291.226,66.48 291.375,65.984 291.375,65.333 C 291.375,63.93 290.725,63.245 289.306,63.245 L 287.803,63.245 L 287.803,67.40501 L 289.306,67.40501 z M 293.495,65.453 C 293.495,66.75401 292.928,67.815 291.909,68.43201 C 291.274,68.825 290.657,68.996 288.972,68.996 L 285.9,68.996 L 285.9,57.151 L 287.803,57.151 L 287.803,61.67 L 289.756,61.67 C 291.842,61.67 293.495,63.125 293.495,65.453"
               id="path2558"
               style="fill:#ed1c24;fill-opacity:1;fill-rule:evenodd;stroke:none" /><path
               d="M 299.785,67.40501 C 300.537,67.40501 301.037,67.19901 301.388,66.82301 C 301.705,66.48 301.855,65.984 301.855,65.333 C 301.855,63.93 301.204,63.245 299.785,63.245 L 298.283,63.245 L 298.283,67.40501 L 299.785,67.40501 z M 303.976,65.453 C 303.976,66.75401 303.407,67.815 302.39,68.43201 C 301.756,68.825 301.138,68.996 299.452,68.996 L 296.381,68.996 L 296.381,57.151 L 298.283,57.151 L 298.283,61.67 L 300.236,61.67 C 302.322,61.67 303.976,63.125 303.976,65.453"
               id="path2560"
               style="fill:#ed1c24;fill-opacity:1;fill-rule:evenodd;stroke:none" /><path
               d="M 313.004,58.777 L 308.73,58.777 L 308.73,68.996 L 306.777,68.996 L 306.777,57.151 L 312.687,57.151 L 313.004,58.777"
               id="path2562"
               style="fill:#ed1c24;fill-opacity:1;fill-rule:evenodd;stroke:none" /><path
               d="M 315.653,68.996 L 317.623,68.996 L 317.623,57.15 L 315.653,57.15 L 315.653,68.996 z"
               id="path2564"
               style="fill:#ed1c24;fill-opacity:1;fill-rule:nonzero;stroke:none" /><path
               d="M 328.37,57.151 L 328.37,58.829 L 323.746,58.829 L 323.746,62.526 L 327.269,62.526 L 327.269,64.152 L 323.713,64.152 L 323.713,67.387 L 327.952,67.387 L 328.203,68.996 L 321.793,68.996 L 321.793,57.151 L 328.37,57.151"
               id="path2566"
               style="fill:#ed1c24;fill-opacity:1;fill-rule:evenodd;stroke:none" /><path
               d="M 337.83,62.833 C 337.83,60.146 337.012,58.76 334.976,58.76 L 333.707,58.76 L 333.707,67.439 L 334.926,67.439 C 335.961,67.439 336.562,67.165 337.096,66.412 C 337.696,65.57301 337.83,64.357 337.83,62.833 z M 339.967,63.039 C 339.967,64.888 339.566,66.30901 338.715,67.319 C 337.63,68.58501 336.345,68.996 334.174,68.996 L 331.771,68.996 L 331.771,57.151 L 334.625,57.151 C 336.778,57.151 337.78,57.544 338.748,58.811 C 339.533,59.838 339.967,61.242 339.967,63.039"
               id="path2568"
               style="fill:#ed1c24;fill-opacity:1;fill-rule:evenodd;stroke:none" /><path
               d="M 355.58,60.728 C 355.58,62.509 354.412,63.604 352.742,64.1 L 351.374,64.512 C 350.239,64.854 349.839,65.23 349.839,65.967 C 349.839,66.942 350.589,67.576 351.725,67.576 C 352.643,67.576 353.377,67.319 354.445,66.66801 L 355.313,68.055 C 354.295,68.791 352.977,69.18401 351.657,69.18401 C 349.338,69.18401 347.735,67.764 347.735,65.675 C 347.735,64.991 347.902,64.426 348.22,63.947 C 348.653,63.279 349.404,62.833 350.456,62.526 L 351.691,62.166 C 352.876,61.824 353.41,61.276 353.41,60.403 C 353.41,59.222 352.56,58.52 351.141,58.52 C 349.973,58.52 349.054,58.879 348.02,59.496 L 347.285,57.99 C 348.42,57.288 349.755,56.928 351.073,56.928 C 354.028,56.928 355.58,58.76 355.58,60.728"
               id="path2570"
               style="fill:#ed1c24;fill-opacity:1;fill-rule:evenodd;stroke:none" /><path
               d="M 366.344,58.006 L 365.441,59.256 C 364.791,58.725 364.19,58.503 363.372,58.503 C 362.254,58.503 361.303,59.051 360.802,60.18 C 360.501,60.848 360.351,61.67 360.351,63.125 C 360.351,64.529 360.551,65.521 360.952,66.24 C 361.453,67.147 362.271,67.661 363.256,67.661 C 363.973,67.661 364.607,67.455 365.225,66.993 L 366.11,68.29501 C 365.426,68.87701 364.357,69.219 363.238,69.219 C 361.436,69.219 359.85,68.192 358.982,66.497 C 358.465,65.50401 358.215,64.32301 358.215,62.902 C 358.215,61.19 358.665,59.752 359.533,58.674 C 360.435,57.561 361.653,56.962 363.188,56.962 C 364.424,56.962 365.441,57.305 366.344,58.006"
               id="path2572"
               style="fill:#ed1c24;fill-opacity:1;fill-rule:evenodd;stroke:none" /><path
               d="M 369.194,68.996 L 371.16299,68.996 L 371.16299,57.15 L 369.194,57.15 L 369.194,68.996 z"
               id="path2574"
               style="fill:#ed1c24;fill-opacity:1;fill-rule:nonzero;stroke:none" /><path
               d="M 381.91,57.151 L 381.91,58.829 L 377.287,58.829 L 377.287,62.526 L 380.809,62.526 L 380.809,64.152 L 377.254,64.152 L 377.254,67.387 L 381.493,67.387 L 381.743,68.996 L 375.334,68.996 L 375.334,57.151 L 381.91,57.151"
               id="path2576"
               style="fill:#ed1c24;fill-opacity:1;fill-rule:evenodd;stroke:none" /><path
               d="M 393.19,57.151 L 393.19,68.996 L 391.37,68.996 L 391.404,63.587 C 391.404,62.509 391.521,60.814 391.57,60.215 L 391.521,60.163 C 391.37,60.711 390.87,62.115 390.336,63.211 L 387.531,68.996 L 385.361,68.996 L 385.361,57.151 L 387.248,57.151 L 387.182,62.885 C 387.164,63.93 387.147,65.179 387.064,66.172 L 387.114,66.22401 C 387.331,65.521 387.966,64.03201 388.583,62.714 L 391.17,57.151 L 393.19,57.151"
               id="path2578"
               style="fill:#ed1c24;fill-opacity:1;fill-rule:evenodd;stroke:none" /><path
               d="M 404.62,58.006 L 403.719,59.256 C 403.067,58.725 402.467,58.503 401.648,58.503 C 400.53,58.503 399.579,59.051 399.078,60.18 C 398.778,60.848 398.628,61.67 398.628,63.125 C 398.628,64.529 398.828,65.521 399.229,66.24 C 399.729,67.147 400.547,67.661 401.532,67.661 C 402.25,67.661 402.885,67.455 403.502,66.993 L 404.387,68.29501 C 403.702,68.87701 402.634,69.219 401.516,69.219 C 399.713,69.219 398.127,68.192 397.26,66.497 C 396.741,65.50401 396.491,64.32301 396.491,62.902 C 396.491,61.19 396.941,59.752 397.81,58.674 C 398.711,57.561 399.93,56.962 401.466,56.962 C 402.7,56.962 403.719,57.305 404.62,58.006"
               id="path2580"
               style="fill:#ed1c24;fill-opacity:1;fill-rule:evenodd;stroke:none" /><path
               d="M 414.047,57.151 L 414.047,58.829 L 409.424,58.829 L 409.424,62.526 L 412.945,62.526 L 412.945,64.152 L 409.391,64.152 L 409.391,67.387 L 413.63,67.387 L 413.88,68.996 L 407.471,68.996 L 407.471,57.151 L 414.047,57.151"
               id="path2582"
               style="fill:#ed1c24;fill-opacity:1;fill-rule:evenodd;stroke:none" /><path
               d="M 424.826,60.728 C 424.826,62.509 423.657,63.604 421.988,64.1 L 420.619,64.512 C 419.484,64.854 419.084,65.23 419.084,65.967 C 419.084,66.942 419.835,67.576 420.97,67.576 C 421.888,67.576 422.623,67.319 423.691,66.66801 L 424.559,68.055 C 423.541,68.791 422.223,69.18401 420.903,69.18401 C 418.583,69.18401 416.981,67.764 416.981,65.675 C 416.981,64.991 417.147,64.426 417.465,63.947 C 417.899,63.279 418.65,62.833 419.701,62.526 L 420.937,62.166 C 422.122,61.824 422.656,61.276 422.656,60.403 C 422.656,59.222 421.805,58.52 420.386,58.52 C 419.218,58.52 418.3,58.879 417.265,59.496 L 416.53,57.99 C 417.665,57.288 419.001,56.928 420.319,56.928 C 423.273,56.928 424.826,58.76 424.826,60.728"
               id="path2584"
               style="fill:#ed1c24;fill-opacity:1;fill-rule:evenodd;stroke:none" /></g></g></g></g></g></svg>